<?xml version="1.0" standalone="no"?>
<!DOCTYPE svg PUBLIC "-//W3C//DTD SVG 20010904//EN"
 "http://www.w3.org/TR/2001/REC-SVG-20010904/DTD/svg10.dtd">
<svg version="1.0" xmlns="http://www.w3.org/2000/svg"
 width="2048.000000pt" height="2048.000000pt" viewBox="0 0 2048.000000 2048.000000"
 preserveAspectRatio="xMidYMid meet">

<g transform="translate(0.000000,2048.000000) scale(0.100000,-0.100000)"
fill="#5059d6ff" stroke="none">
<path d="M9840 20470 c-1104 -54 -1934 -207 -2900 -535 -533 -181 -1142 -447
-1568 -684 -385 -215 -463 -262 -786 -475 -397 -263 -762 -540 -1081 -821 -44
-38 -82 -72 -85 -75 -3 -3 -72 -67 -155 -141 -154 -140 -415 -402 -586 -589
-608 -662 -1181 -1492 -1577 -2285 -357 -715 -618 -1424 -813 -2210 -196 -788
-302 -1762 -285 -2605 3 -179 8 -338 10 -355 3 -16 7 -84 10 -150 8 -160 37
-449 72 -725 71 -548 260 -1342 454 -1905 239 -691 606 -1466 968 -2045 157
-250 179 -285 256 -398 67 -99 109 -158 247 -343 560 -756 1276 -1479 2016
-2034 70 -53 154 -117 186 -141 138 -108 546 -376 807 -531 672 -398 1501
-769 2150 -959 457 -135 688 -194 1010 -258 414 -82 890 -148 1240 -171 52 -3
113 -8 135 -10 22 -2 188 -9 368 -16 868 -33 1939 78 2772 287 1079 271 2088
705 3026 1300 175 111 413 271 489 329 30 23 80 59 110 80 173 120 545 425
781 640 190 174 594 575 725 720 652 721 1167 1477 1581 2322 179 366 268 569
374 853 27 74 54 144 59 155 14 30 35 91 104 300 121 363 158 493 245 850 58
236 59 240 76 335 9 47 22 117 30 155 76 371 145 969 162 1405 14 346 6 1166
-12 1222 -2 7 -6 60 -10 117 -6 112 -48 494 -65 601 -5 36 -22 137 -35 225
-65 409 -196 958 -332 1393 -208 665 -515 1379 -851 1977 -672 1195 -1616
2276 -2732 3126 -515 393 -1104 757 -1672 1034 -1249 608 -2524 943 -3913
1025 -240 15 -798 20 -1005 10z m810 -4426 c841 -71 1511 -249 2206 -584 815
-393 1556 -977 2100 -1657 558 -696 952 -1477 1148 -2273 134 -547 182 -922
185 -1460 3 -595 -57 -1060 -214 -1645 -57 -209 -77 -273 -168 -520 -135 -368
-366 -819 -597 -1165 -300 -448 -578 -776 -971 -1145 -279 -262 -617 -517
-964 -727 -521 -316 -999 -521 -1610 -691 -214 -60 -269 -72 -480 -107 -430
-71 -752 -96 -1135 -87 -746 18 -1307 126 -2025 392 -208 77 -310 122 -526
230 -1053 527 -1881 1282 -2500 2280 -390 628 -643 1275 -793 2025 -99 500
-132 1147 -81 1630 13 125 17 164 31 275 82 655 265 1262 560 1855 138 276
222 422 377 654 199 298 381 531 592 760 649 700 1407 1217 2300 1569 572 225
1252 369 1880 397 173 8 568 4 685 -6z"/>
<path d="M10035 15473 c-535 -20 -1106 -129 -1610 -308 -970 -345 -1832 -959
-2474 -1763 -467 -586 -775 -1176 -980 -1882 -170 -586 -244 -1296 -195 -1872
56 -658 173 -1141 419 -1733 173 -415 451 -884 744 -1255 224 -283 542 -607
826 -840 50 -41 92 -77 95 -81 14 -17 234 -175 385 -274 353 -235 749 -436
1103 -562 513 -182 883 -267 1397 -324 162 -17 675 -23 868 -10 596 42 1216
192 1772 428 145 62 516 248 632 317 159 95 416 269 553 375 773 596 1381
1382 1746 2258 201 483 320 958 390 1553 19 157 28 759 14 910 -5 52 -11 131
-15 175 -3 44 -8 89 -10 100 -2 11 -7 43 -10 70 -62 524 -255 1163 -497 1649
-149 298 -280 512 -510 836 -102 143 -264 334 -447 525 -625 652 -1361 1123
-2221 1419 -406 140 -791 224 -1240 270 -194 20 -496 28 -735 19z m1087 -2416
c120 -59 210 -174 238 -304 12 -56 7 -4404 -5 -4465 l-7 -38 -927 0 c-509 0
-942 3 -963 6 -34 6 -36 9 -43 53 -22 160 -113 404 -200 537 -64 99 -197 236
-297 307 -399 285 -925 290 -1333 14 -76 -52 -223 -193 -281 -270 -55 -74
-129 -208 -165 -301 -28 -72 -63 -212 -74 -298 -5 -41 -10 -48 -28 -48 -12 0
-112 -3 -222 -7 -231 -7 -272 -1 -355 55 -42 28 -62 51 -85 96 l-30 60 0 2160
0 2161 28 60 c56 120 140 203 252 248 36 15 233 16 2231 14 l2190 -2 76 -38z
m2023 -982 c66 -34 99 -73 211 -248 145 -226 491 -758 892 -1372 47 -71 96
-152 108 -180 l24 -50 0 -890 c0 -844 -1 -892 -19 -931 -25 -55 -76 -111 -125
-137 -39 -21 -56 -22 -290 -25 -137 -2 -252 0 -257 5 -5 5 -18 57 -29 116 -86
444 -362 783 -762 937 -126 48 -323 80 -452 73 -98 -5 -235 -29 -309 -54 -156
-52 -327 -149 -437 -248 -25 -22 -48 -41 -52 -41 -5 0 -8 691 -8 1535 l0 1534
158 3 c86 2 412 3 723 3 l565 0 59 -30z m-4690 -3013 c259 -70 476 -244 592
-477 176 -349 121 -759 -137 -1042 -109 -119 -289 -228 -445 -269 -105 -28
-341 -25 -450 4 -372 102 -641 414 -686 796 -35 301 110 637 355 819 131 96
260 154 409 183 94 18 269 11 362 -14z m4151 18 c103 -13 240 -59 323 -109
108 -65 228 -167 281 -239 131 -177 192 -361 192 -576 0 -241 -88 -457 -256
-629 -345 -353 -896 -369 -1270 -36 -169 150 -288 393 -299 609 -16 325 117
618 365 801 202 150 421 209 664 179z"/>
<path d="M12100 10935 l0 -685 870 0 870 0 0 20 c0 35 -39 100 -295 490 -66
102 -143 220 -170 262 -28 42 -126 194 -220 337 l-170 261 -442 0 -443 0 0
-685z"/>
<path d="M8165 8610 c-308 -66 -463 -379 -323 -654 26 -52 99 -128 156 -165
128 -81 295 -94 424 -34 115 54 205 155 243 271 23 73 17 223 -13 306 -69 189
-295 318 -487 276z"/>
<path d="M12360 8596 c-98 -35 -129 -54 -186 -112 -69 -70 -111 -157 -125
-259 -10 -72 -9 -90 10 -165 26 -103 72 -175 156 -242 75 -61 149 -89 247 -96
140 -9 259 38 352 139 132 142 159 330 75 507 -94 195 -332 298 -529 228z"/>
</g>
</svg>
